<?xml version="1.0" encoding="UTF-8"?>
<!DOCTYPE svg PUBLIC "-//W3C//DTD SVG 1.1//EN" "http://www.w3.org/Graphics/SVG/1.1/DTD/svg11.dtd">
<svg xmlns="http://www.w3.org/2000/svg" xmlns:xlink="http://www.w3.org/1999/xlink">
	<defs>
		<clipPath id="icon-qiwi-a">
			<path fill="#fff" d="M0 0h20v20H0z" transform="translate(.5)"/>
		</clipPath>
		<clipPath id="icon-qiwi-b">
			<path fill="#fff" d="M0 0h20v20H0z" transform="translate(.5)"/>
		</clipPath>

		<clipPath id="icon-web-money-a">
			<path fill="#fff" d="M0 0h20v20H0z" transform="translate(.5)"/>
		</clipPath>
	</defs>
<symbol id="chevron-up" viewBox="0 0 21 21">
	<path fill="currentColor" d="M14.934 12.348a.307.307 0 0 1-.09.206l-.446.446a.308.308 0 0 1-.205.09.308.308 0 0 1-.206-.09l-3.509-3.509-3.509 3.51a.308.308 0 0 1-.205.088A.29.29 0 0 1 6.56 13l-.447-.446a.307.307 0 0 1-.089-.206c0-.071.036-.151.09-.205l4.16-4.16a.308.308 0 0 1 .205-.09c.072 0 .152.036.206.09l4.16 4.16c.054.054.09.134.09.205Z"/>
</symbol>
<symbol id="icon-burger" viewBox="0 0 24 24">
	<path stroke="#3E9CDC" stroke-linecap="round" stroke-width="2" d="M4 18h16M4 12h16M4 6h16"/>
</symbol>
<symbol id="icon-cash" viewBox="0 0 56 56">
	<path fill="#fff" d="M24.729 32.536v-1.929H27.3v-5.786h-.04c-.321.503-.623.724-1.105 1.145l-1.547-1.607 2.973-2.752h2.29v9h2.572v1.929h-7.714Zm10.285-5.143c0-3.656-2.21-8.357-6.428-8.357-4.219 0-6.429 4.7-6.429 8.357 0 3.656 2.21 8.357 6.429 8.357s6.428-4.7 6.428-8.357ZM45.3 32.536a5.153 5.153 0 0 0-5.143 5.143H17.015a5.153 5.153 0 0 0-5.143-5.143V22.25a5.153 5.153 0 0 0 5.143-5.143h23.142A5.153 5.153 0 0 0 45.3 22.25v10.286Zm2.572-16.715c0-.703-.583-1.285-1.286-1.285h-36c-.703 0-1.286.582-1.286 1.285v23.143c0 .703.583 1.286 1.286 1.286h36c.703 0 1.286-.583 1.286-1.286V15.821Z"/>
</symbol>
<symbol id="icon-cross" viewBox="0 0 32 32">
	<path fill="#3E9CDC" d="m18.8 16 5.5-5.5c.8-.8.8-2 0-2.8-.3-.4-.8-.7-1.3-.7s-1 .2-1.4.6L16 13.2l-5.5-5.5c-.8-.8-2.1-.8-2.8 0-.4.3-.7.8-.7 1.4s.2 1 .6 1.4l5.5 5.5-5.5 5.5c-.3.4-.6.9-.6 1.5 0 .5.2 1 .6 1.4.4.4.9.6 1.4.6.5 0 1-.2 1.4-.6l5.5-5.5 5.5 5.5c.8.8 2.1.8 2.8 0 .8-.8.8-2.1 0-2.8L18.8 16z"/>
</symbol>
<symbol id="icon-doc-plus" viewBox="0 0 55 56">
	<path fill="#fff" d="M23.993 29.372v-1.285c0-.362.282-.643.643-.643H38.78c.361 0 .643.281.643.643v1.285a.635.635 0 0 1-.643.643H24.636a.635.635 0 0 1-.643-.643ZM24.636 32.587H38.78c.361 0 .643.281.643.643v1.285a.635.635 0 0 1-.643.643H24.636a.635.635 0 0 1-.643-.643V33.23c0-.362.282-.643.643-.643ZM24.636 37.73H38.78c.361 0 .643.28.643.642v1.286a.635.635 0 0 1-.643.643H24.636a.635.635 0 0 1-.643-.643v-1.286c0-.361.282-.642.643-.642Z"/>
	<path fill="#fff" fill-rule="evenodd" d="M16.279 21.315a7.415 7.415 0 1 1 7.173-9.3h12.756c1.064 0 2.55.623 3.294 1.366l6.268 6.268c.743.743 1.366 2.23 1.366 3.295v23.143a1.93 1.93 0 0 1-1.928 1.928h-27a1.93 1.93 0 0 1-1.93-1.928V21.315Zm2.571-.458a7.421 7.421 0 0 0 4.813-6.27h10.616v8.357a1.93 1.93 0 0 0 1.928 1.928h8.358v20.572H18.85V20.857Zm18.824-5.668c-.14-.14-.482-.321-.824-.442v7.554h7.554c-.12-.341-.301-.683-.442-.824l-6.288-6.288Zm-20.395-.29h4v-2h-4v-4h-2v4h-4v2h4v4h2v-4Z" clip-rule="evenodd"/>
</symbol>
<symbol id="icon-doc" viewBox="0 0 18 21">
	<path fill="currentColor" d="M16.813 4.609 13.33 1.127c-.413-.413-1.239-.76-1.83-.76h-10C.908.368.429.848.429 1.44v17.858c0 .591.48 1.07 1.071 1.07h15c.591 0 1.071-.479 1.071-1.07V6.439c0-.591-.346-1.417-.759-1.83Zm-4.956-2.723c.19.067.38.167.458.245l3.493 3.494c.078.078.179.267.246.457h-4.197V1.886Zm4.286 17.053H1.857V1.796h8.572V6.44c0 .592.48 1.072 1.071 1.072h4.643v11.428ZM4.714 9.296v.715c0 .2.157.357.357.357h7.858c.2 0 .357-.156.357-.357v-.715c0-.2-.156-.357-.357-.357H5.07c-.2 0-.357.157-.357.357Zm8.215 2.5H5.07c-.2 0-.357.157-.357.358v.714c0 .2.157.357.357.357h7.858c.2 0 .357-.156.357-.357v-.714c0-.201-.156-.357-.357-.357Zm0 2.858H5.07c-.2 0-.357.156-.357.357v.714c0 .201.157.357.357.357h7.858c.2 0 .357-.156.357-.357v-.714c0-.201-.156-.357-.357-.357Z"/>
</symbol>
<symbol id="icon-envelope-blue" viewBox="0 0 21 20">
	<path fill="#3E9CDC" d="M16.75 14.85a.275.275 0 0 1-.267.267H4.16a.275.275 0 0 1-.268-.268V8.421c.176.2.369.385.578.552 1.197.92 2.402 1.858 3.566 2.83.627.527 1.406 1.171 2.276 1.171h.017c.87 0 1.65-.644 2.277-1.172a114.783 114.783 0 0 1 3.566-2.829c.209-.167.402-.352.577-.552v6.428Zm0-8.798c0 .711-.686 1.64-1.23 2.067a517.56 517.56 0 0 0-3.357 2.654c-.443.36-1.247 1.13-1.833 1.13h-.017c-.586 0-1.39-.77-1.833-1.13a518.102 518.102 0 0 0-3.356-2.654c-.754-.594-1.23-1.423-1.23-2.377 0-.142.125-.268.267-.268h12.322c.318 0 .267.368.267.578Zm1.072-.31c0-.737-.603-1.34-1.34-1.34H4.163c-.738 0-1.34.603-1.34 1.34v9.107c0 .737.602 1.34 1.34 1.34h12.32c.737 0 1.34-.603 1.34-1.34V5.742Z"/>
</symbol>
<symbol id="icon-envelope" viewBox="0 0 56 56">
	<path fill="#fff" d="M44.795 39.107a.661.661 0 0 1-.643.643H14.581a.661.661 0 0 1-.643-.643V23.68c.422.482.884.924 1.386 1.326 2.873 2.21 5.766 4.46 8.558 6.79 1.507 1.265 3.375 2.812 5.464 2.812h.04c2.09 0 3.958-1.547 5.465-2.812 2.792-2.33 5.685-4.58 8.558-6.79.502-.402.964-.844 1.386-1.326v15.428Zm0-21.114c0 1.708-1.647 3.938-2.953 4.962-2.692 2.11-5.384 4.24-8.056 6.369-1.065.863-2.993 2.712-4.4 2.712h-.04c-1.406 0-3.334-1.849-4.4-2.712-2.67-2.13-5.363-4.26-8.055-6.369-1.808-1.426-2.953-3.415-2.953-5.705 0-.341.301-.643.643-.643h29.571c.764 0 .643.884.643 1.386Zm2.572-.743a3.224 3.224 0 0 0-3.215-3.214H14.581a3.224 3.224 0 0 0-3.214 3.214v21.857a3.224 3.224 0 0 0 3.214 3.214h29.571a3.224 3.224 0 0 0 3.215-3.214V17.25Z"/>
</symbol>
<symbol id="icon-loupe" viewBox="0 0 55 55">
	<path fill="#fff" d="M33.929 24.929c0 4.962-4.038 9-9 9s-9-4.038-9-9 4.037-9 9-9c4.962 0 9 4.037 9 9Zm10.285 16.714c0-.683-.281-1.346-.743-1.808l-6.89-6.89a14.11 14.11 0 0 0 2.49-8.016c0-7.815-6.328-14.143-14.142-14.143-7.815 0-14.143 6.328-14.143 14.143 0 7.814 6.328 14.142 14.143 14.142a14.11 14.11 0 0 0 8.015-2.49l6.89 6.87a2.522 2.522 0 0 0 1.809.763 2.59 2.59 0 0 0 2.571-2.571Z"/>
</symbol>
<symbol id="icon-percent" viewBox="0 0 55 56">
	<path fill="#fff" d="M37.786 35.964a2.59 2.59 0 0 1-2.572 2.572 2.59 2.59 0 0 1-2.571-2.572 2.59 2.59 0 0 1 2.571-2.571 2.59 2.59 0 0 1 2.572 2.571ZM22.357 20.536a2.59 2.59 0 0 1-2.571 2.571 2.59 2.59 0 0 1-2.572-2.571 2.59 2.59 0 0 1 2.572-2.572 2.59 2.59 0 0 1 2.571 2.572ZM42.93 35.964a7.716 7.716 0 0 0-7.715-7.714 7.716 7.716 0 0 0-7.714 7.714 7.716 7.716 0 0 0 7.714 7.715 7.716 7.716 0 0 0 7.715-7.715ZM41 14.107c0-.703-.583-1.286-1.286-1.286H36.5c-.402 0-.783.201-1.025.523L14.261 41.629c-.16.221-.261.483-.261.764 0 .703.583 1.286 1.286 1.286H18.5c.402 0 .784-.201 1.025-.523l21.214-28.285c.16-.222.261-.483.261-.764Zm-13.5 6.429a7.716 7.716 0 0 0-7.714-7.715 7.716 7.716 0 0 0-7.715 7.715 7.716 7.716 0 0 0 7.715 7.714 7.716 7.716 0 0 0 7.714-7.714Z"/>
</symbol>
<symbol id="icon-qiwi" viewBox="0 0 21 20">
	<g clip-path="url(#icon-qiwi-a)">
		<g clip-path="url(#icon-qiwi-b)">
			<path fill="#3E9CDC" d="M16.912 13.456c.06.388-.067.552-.195.552s-.314-.158-.521-.47c-.207-.313-.278-.661-.178-.84a.287.287 0 0 1 .17-.126.298.298 0 0 1 .213.022c.341.124.475.63.51.862Zm-1.888.85c.41.335.535.733.318 1.013a.687.687 0 0 1-.55.238.998.998 0 0 1-.626-.218c-.37-.314-.48-.825-.237-1.114a.534.534 0 0 1 .434-.176c.245.008.479.099.661.257Zm-.684 3.23c1.762 0 3.674.585 5.791 2.4.211.18.493-.045.309-.27-2.08-2.54-4.008-3.025-5.922-3.433-2.346-.502-3.554-1.78-4.4-3.182-.166-.279-.242-.23-.257.13a7.655 7.655 0 0 0 .124 1.59H9.7a6.226 6.226 0 0 1-3.377-.992 5.927 5.927 0 0 1-2.239-2.639 5.701 5.701 0 0 1-.345-3.397A5.823 5.823 0 0 1 5.4 4.733a6.145 6.145 0 0 1 3.112-1.61 6.27 6.27 0 0 1 3.512.335 6.04 6.04 0 0 1 2.728 2.166 5.744 5.744 0 0 1 .986 3.95 9.38 9.38 0 0 0-1.93-.035c-.232.02-.198.13-.025.154 2.004.35 3.391 1.55 3.706 3.74a.053.053 0 0 0 .014.03.055.055 0 0 0 .062.014.055.055 0 0 0 .026-.021 8.658 8.658 0 0 0 1.24-5.608 8.78 8.78 0 0 0-2.554-5.176 9.31 9.31 0 0 0-5.29-2.59A9.46 9.46 0 0 0 5.165 1.15a9.001 9.001 0 0 0-3.94 4.286 8.625 8.625 0 0 0-.417 5.72 8.884 8.884 0 0 0 3.28 4.779 9.399 9.399 0 0 0 5.612 1.849c1.343.004 2.68-.25 4.641-.25v.002Z"/>
		</g>
	</g>

</symbol>
<symbol id="icon-vkontakte" viewBox="0 0 21 20">
	<path fill="#3E9CDC" d="M15.18 12.286c0 .65-.123 1.222-.369 1.714s-.577.9-.993 1.222a4.598 4.598 0 0 1-1.626.826c-.586.164-1.333.246-2.241.246H4.713V3.207h4.623c.96 0 1.687.038 2.18.114.497.07.963.223 1.397.457.469.252.817.59 1.046 1.011.234.422.351.908.351 1.46 0 .638-.16 1.206-.483 1.704a2.794 2.794 0 0 1-1.319 1.099v.07c.81.17 1.457.519 1.943 1.046.486.522.73 1.228.73 2.118Zm-4.21-5.379c0-.21-.055-.427-.167-.65a.961.961 0 0 0-.5-.483 2.042 2.042 0 0 0-.774-.15 36.06 36.06 0 0 0-1.318-.017h-.229v2.768h.413c.563 0 .955-.006 1.178-.017.229-.012.463-.074.703-.185.264-.123.445-.293.545-.51.1-.217.15-.469.15-.756Zm.827 5.318c0-.405-.082-.721-.247-.95-.164-.228-.41-.4-.738-.518-.199-.076-.474-.117-.826-.123a43.486 43.486 0 0 0-1.397-.018h-.607v3.279h.176c.855 0 1.447-.006 1.775-.018.329-.012.662-.09 1.002-.237.3-.13.516-.317.65-.563.141-.252.212-.536.212-.852Z"/>
</symbol>
<symbol id="icon-web-money" viewBox="0 0 21 20">
	<g clip-path="url(#icon-web-money-a)">
		<path fill="#3E9CDC" d="M9.34 0c1.411 0 2.753.323 3.957.901.189.085.379.187.567.29l-.826.73L11.801.647l-2.133 1.87-1.256-1.343L4.49 4.66l2.511 2.737-.98.85 2.477 2.738-.98.85 3.543 3.893 2.098-1.904 1.824 2.04c-.362.273-.758.546-1.187.783a9.07 9.07 0 0 1-4.438 1.156c-4.971 0-9.012-3.995-9.012-8.909C.328 4.013 4.37 0 9.34 0ZM7.69 8.349l2.15-1.905 1.926 2.126-2.15 1.904-1.927-2.125Zm1.53 3.672 2.133-1.92 1.944 2.124-2.15 1.905L9.22 12.02ZM6.16 4.727l2.149-1.904 1.926 2.125-2.15 1.904L6.16 4.727Zm3.937-1.02 1.6-1.429 1.445 1.582-1.6 1.445-1.445-1.598Zm2.856 6.546 1.6-1.428 1.444 1.597-1.6 1.43-1.444-1.6Zm1.41 3.214 1.6-1.429 1.444 1.582-1.6 1.444-1.444-1.597Zm.654-7.346 1.066-.952.963 1.054-1.066.952-.963-1.054ZM13.64 2.975l1.066-.968.964 1.07-1.067.953-.963-1.055Zm2.734 6.292 1.067-.952.98 1.054-1.083.952-.963-1.054Zm-4.798-2.364 1.6-1.428 1.444 1.581-1.599 1.429-1.445-1.582Z"/>
	</g>

</symbol>
<symbol id="icon-yandex-money" viewBox="0 0 21 20">
	<path fill="#3E9CDC" fill-rule="evenodd" d="M3.78 9.93c0-.983.083-1.608 2.138-3.13 1.701-1.259 7.155-5.563 7.155-5.563v7.185h4.147v10.34H5.075a1.294 1.294 0 0 1-1.295-1.284V9.93Z" clip-rule="evenodd"/>
	<path fill="#000" fill-opacity=".2" fill-rule="evenodd" d="M13.073 8.422v4.163l-7.62 5.148 9.634-3.108V8.422h-2.014Z" clip-rule="evenodd"/>
	<path fill="#231F20" fill-rule="evenodd" d="M9.59 8.207c.446-.527 1.097-.713 1.454-.415.358.297.286.965-.16 1.492-.445.526-1.096.712-1.453.415-.358-.298-.286-.966.16-1.492Z" clip-rule="evenodd"/>
</symbol>
</svg>